<svg id="a1ea5b26-64c6-49dc-9d01-9cd382902f72" data-name="レイヤー 1" xmlns="http://www.w3.org/2000/svg" viewBox="0 0 180 121"><path d="M32.42,20.26A17.24,17.24,0,0,0,49.58,7.64l6.25,2.05s-2.69,19.85-1.07,27.08a12.74,12.74,0,0,0,7.33,9.28s-1.64,20.71-1,29.13,3.69,32.47,2.93,37.76c0,0-17.26,2.37-29.45,1.83H30.26c-12.19.54-29.45-1.83-29.45-1.83-.75-5.29,2.65-29.35,3.3-37.76S2.75,46.05,2.75,46.05a12.77,12.77,0,0,0,7.34-9.28C11.71,29.54,9,9.69,9,9.69l6.26-2s2.91,12.51,17.15,12.62" fill="none" stroke="#040000" stroke-miterlimit="10" stroke-width="1.02"/><path d="M51.89,5.67S50.25,28.55,34,28.78" fill="none" stroke="#040000" stroke-miterlimit="10" stroke-width="1.08"/><path d="M56.52,6.67a85.38,85.38,0,0,0-2.14,18.26c0,12,.82,17.67,10.19,23.86" fill="none" stroke="#040000" stroke-miterlimit="10" stroke-width="1.08"/><path d="M54.38,5.84S53.76,31.62,34,31.73" fill="none" stroke="#040000" stroke-miterlimit="10" stroke-width="1.08"/><path d="M34,21s10.25.73,16-6.32" fill="none" stroke="#040000" stroke-miterlimit="10" stroke-width="1.08"/><path d="M16.18,5.67S17.82,28.55,34,28.78" fill="none" stroke="#040000" stroke-miterlimit="10" stroke-width="1.08"/><path d="M11.55,6.67A85,85,0,0,1,13.7,24.93c0,12-.83,17.67-10.2,23.86" fill="none" stroke="#040000" stroke-miterlimit="10" stroke-width="1.08"/><path d="M13.7,5.84S14.31,31.62,34,31.73" fill="none" stroke="#040000" stroke-miterlimit="10" stroke-width="1.08"/><path d="M.85,107.43s19,2.41,30.92,2H36.3c11.91.45,30.92-2,30.92-2" fill="none" stroke="#040000" stroke-miterlimit="10" stroke-width="1.08"/><path d="M34,21s-10.25.73-16-6.32" fill="none" stroke="#040000" stroke-miterlimit="10" stroke-width="1.08"/><path d="M156.91,47.21l5.41,5.5L179.1,38.9s-16.21-21.36-19.43-23.84-18.85-7.34-18.85-7.34-3.68,4-13.23,4.32h-2.65c-9.54-.32-13.22-4.32-13.22-4.32s-15.64,4.86-18.86,7.34S73.43,38.9,73.43,38.9L90.22,52.71l5.4-5.5" fill="none" stroke="#040000" stroke-miterlimit="10" stroke-width="1.02"/><path d="M140.82,7.72s-2.07,11.33-13.23,11.33h-2.65c-11.15,0-13.22-11.33-13.22-11.33" fill="none" stroke="#040000" stroke-miterlimit="10" stroke-width="1.02"/><path d="M92.58,15.71s3.39,6.9,3.5,11.11-.92,17.26,0,24.71c.65,5.23-.66,22.71-1.16,24.16-1.28,3.67-3.21,31.51-2.4,37.12,0,0,19.66,2.16,32.42,1.94h2.65c12.77.22,32.43-1.94,32.43-1.94.8-5.61-.74-33.45-2-37.12-.51-1.45-2.2-18.93-1.56-24.16.92-7.45-.11-20.5,0-24.71S160,15.71,160,15.71" fill="none" stroke="#040000" stroke-miterlimit="10" stroke-width="1.02"/></svg>