<svg id="b35d167e-13ca-44ad-8542-a616cca17e34" data-name="レイヤー 1" xmlns="http://www.w3.org/2000/svg" viewBox="0 0 218 121"><path d="M194.81,46.5,200.22,52,217,38.2s-16.22-21.37-19.44-23.85S178.72,7,178.72,7s-3.68,4-13.23,4.31h-2.65C153.3,11,149.62,7,149.62,7S134,11.87,130.76,14.35,111.33,38.2,111.33,38.2L128.12,52l5.4-5.51" fill="none" stroke="#040000" stroke-miterlimit="10" stroke-width="1.02"/><path d="M182.4,8.2s-2.53,12.73-16.91,13.06h-2.65c-14.37-.33-16.9-13.06-16.9-13.06" fill="none" stroke="#040000" stroke-miterlimit="10" stroke-width="1.02"/><path d="M178.72,7s-2.07,11.32-13.23,11.32h-2.65C151.69,18.34,149.62,7,149.62,7" fill="none" stroke="#040000" stroke-miterlimit="10" stroke-width="1.02"/><line x1="214.59" y1="36.15" x2="198.51" y2="49.53" fill="none" stroke="#040000" stroke-miterlimit="10" stroke-width="1.02"/><path d="M130.48,15s3.39,6.9,3.5,11.11-.92,17.26,0,24.71c.65,5.23-.66,22.71-1.16,24.17-1.28,3.66-3.21,31.5-2.4,37.11,0,0,19.66,2.16,32.42,1.94h2.65c12.77.22,32.43-1.94,32.43-1.94.8-5.61-.74-33.45-2-37.11-.5-1.46-2.2-18.94-1.56-24.17.92-7.45-.11-20.5,0-24.71S197.86,15,197.86,15" fill="none" stroke="#040000" stroke-miterlimit="10" stroke-width="1.02"/><line x1="113.75" y1="36.15" x2="129.83" y2="49.53" fill="none" stroke="#040000" stroke-miterlimit="10" stroke-width="1.02"/><path d="M84.48,46.5,89.88,52,106.67,38.2S90.46,16.83,87.24,14.35,68.38,7,68.38,7s-3.68,4-13.22,4.31H52.51C43,11,39.28,7,39.28,7s-15.63,4.85-18.85,7.33S1,38.2,1,38.2L17.78,52l5.41-5.51" fill="none" stroke="#040000" stroke-miterlimit="10" stroke-width="1.02"/><path d="M72.06,8.2s-2.53,12.73-16.9,13.06H52.51C38.13,20.93,35.6,8.2,35.6,8.2" fill="none" stroke="#040000" stroke-miterlimit="10" stroke-width="1.02"/><path d="M68.38,7S66.31,18.34,55.16,18.34H52.51C41.35,18.34,39.28,7,39.28,7" fill="none" stroke="#040000" stroke-miterlimit="10" stroke-width="1.02"/><line x1="104.25" y1="36.15" x2="88.17" y2="49.53" fill="none" stroke="#040000" stroke-miterlimit="10" stroke-width="1.02"/><path d="M20.14,15s3.39,6.9,3.51,11.11-.92,17.26,0,24.71C24.29,56.05,23,73.53,22.48,75c-1.27,3.66-3.2,31.5-2.4,37.11,0,0,19.66,2.16,32.43,1.94h2.65c12.76.22,32.42-1.94,32.42-1.94.81-5.61-.73-33.45-2-37.11-.5-1.46-2.2-18.94-1.55-24.17.92-7.45-.12-20.5,0-24.71S87.52,15,87.52,15" fill="none" stroke="#040000" stroke-miterlimit="10" stroke-width="1.02"/><line x1="3.41" y1="36.15" x2="19.49" y2="49.53" fill="none" stroke="#040000" stroke-miterlimit="10" stroke-width="1.02"/></svg>