<svg id="ff7f3038-9676-42f6-addc-526a411027f0" data-name="レイヤー 1" xmlns="http://www.w3.org/2000/svg" viewBox="0 0 234 121"><polyline points="73.82 21.24 79.5 22.49 79.97 11.55 72.41 0.73 61.27 0.73 56.49 0.73 45.35 0.73 37.79 11.55 38.27 22.49 43.94 21.24" fill="none" stroke="#040000" stroke-miterlimit="10" stroke-width="0.95"/><path d="M80,11.55s13.93,6.27,15.92,8.54S104.44,44,106.63,59.21s10.14,55.25,10.14,55.25-5.37,5.12-17.6,3.22L92.64,86.16" fill="none" stroke="#040000" stroke-miterlimit="10" stroke-width="0.95"/><path d="M95.89,20.09S92.7,37,91.91,44s-.2,23,0,27.91,2.58,48,2.58,48l-37.44.34V61.07l12.57-44s.2-11.77.2-13.1" fill="none" stroke="#040000" stroke-miterlimit="10" stroke-width="0.95"/><polyline points="69.63 17.06 78.78 26.17 58.88 61.96" fill="none" stroke="#040000" stroke-miterlimit="10" stroke-width="0.95"/><path d="M92.26,78.92H72.61v22.43s8.41,2.67,20.86,0" fill="none" stroke="#040000" stroke-miterlimit="10" stroke-width="0.95"/><path d="M37.79,11.55s-13.92,6.27-15.91,8.54S13.32,44,11.14,59.21,1,114.46,1,114.46s5.37,5.12,17.61,3.22l6.52-31.52" fill="none" stroke="#040000" stroke-miterlimit="10" stroke-width="0.95"/><path d="M21.88,20.09S25.06,37,25.86,44s.2,23,0,27.91-2.59,48-2.59,48H57.05V61.07l2.8-9.8L48.14,17.06s-.2-11.77-.2-13.1" fill="none" stroke="#040000" stroke-miterlimit="10" stroke-width="0.95"/><polyline points="48.14 17.06 38.99 26.17 58.75 55.1" fill="none" stroke="#040000" stroke-miterlimit="10" stroke-width="0.95"/><path d="M25.51,78.92H45.15v22.43a25.49,25.49,0,0,1-20.86,0" fill="none" stroke="#040000" stroke-miterlimit="10" stroke-width="0.95"/><ellipse cx="63.39" cy="71.04" rx="2.06" ry="1.97" fill="none" stroke="#040000" stroke-miterlimit="10" stroke-width="0.95"/><ellipse cx="63.39" cy="83.63" rx="2.06" ry="1.97" fill="none" stroke="#040000" stroke-miterlimit="10" stroke-width="0.95"/><path d="M48,9.13s11.53-2.43,21.74,0" fill="none" stroke="#040000" stroke-miterlimit="10" stroke-width="0.95"/><polygon points="91.44 50.14 72.61 50.14 72.61 45.59 91.78 45.59 91.44 50.14" fill="none" stroke="#040000" stroke-miterlimit="10" stroke-width="0.95"/><polyline points="189.68 21.19 195.36 22.43 195.79 11.49 188.18 0.69 177.04 0.72 172.27 0.74 161.13 0.77 153.61 11.62 154.13 22.55 159.8 21.28" fill="none" stroke="#040000" stroke-miterlimit="10" stroke-width="0.95"/><path d="M195.79,11.49s14,6.22,16,8.49,8.65,23.9,10.9,39.08S233,114.28,233,114.28s-5.35,5.14-17.59,3.28l-6.66-31.5" fill="none" stroke="#040000" stroke-miterlimit="10" stroke-width="0.95"/><path d="M211.74,20s-3.12,16.91-3.88,23.94-.11,23,.11,27.91,2.78,48,2.78,48l-37.44.46-.24-59.24,12.4-44s.15-11.77.14-13.1" fill="none" stroke="#040000" stroke-miterlimit="10" stroke-width="0.95"/><polyline points="185.47 17.02 194.65 26.11 174.91 61.96" fill="none" stroke="#040000" stroke-miterlimit="10" stroke-width="0.95"/><path d="M208.35,78.82l-19.65.06.09,22.43s8.42,2.65,20.86-.06" fill="none" stroke="#040000" stroke-miterlimit="10" stroke-width="0.95"/><path d="M153.61,11.61s-13.9,6.31-15.88,8.6-8.46,23.94-10.58,39.14-9.92,55.28-9.92,55.28,5.39,5.11,17.62,3.17l6.39-31.54" fill="none" stroke="#040000" stroke-miterlimit="10" stroke-width="0.95"/><path d="M137.73,20.21s3.25,16.88,4.08,23.91.29,23,.11,27.91-2.39,48-2.39,48l33.78-.1-.24-58.9,2.76-9.8L164,17.09s-.25-11.77-.25-13.1" fill="none" stroke="#040000" stroke-miterlimit="10" stroke-width="0.95"/><polyline points="163.98 17.09 154.87 26.23 174.75 55.1" fill="none" stroke="#040000" stroke-miterlimit="10" stroke-width="0.95"/><path d="M141.6,79,161.25,79l.09,22.43a25.52,25.52,0,0,1-20.86.06" fill="none" stroke="#040000" stroke-miterlimit="10" stroke-width="0.95"/><ellipse cx="179.45" cy="71.03" rx="1.97" ry="2.06" transform="translate(107.07 249.94) rotate(-89.57)" fill="none" stroke="#040000" stroke-miterlimit="10" stroke-width="0.95"/><ellipse cx="179.5" cy="83.61" rx="1.97" ry="2.06" transform="translate(94.54 262.48) rotate(-89.57)" fill="none" stroke="#040000" stroke-miterlimit="10" stroke-width="0.95"/><path d="M163.82,9.16s11.52-2.46,21.74-.06" fill="none" stroke="#040000" stroke-miterlimit="10" stroke-width="0.95"/><polygon points="207.41 50.05 188.58 50.1 188.56 45.55 207.73 45.49 207.41 50.05" fill="none" stroke="#040000" stroke-miterlimit="10" stroke-width="0.95"/></svg>